<svg width="400" height="280" version="1.1" xmlns="http://www.w3.org/2000/svg" desc="Created with imagetracer.js version 1.2.6" ><path fill="rgb(33,53,116)" stroke="rgb(33,53,116)" stroke-width="1" opacity="1" d="M 166.5 0 L 168.5 0 Q 173.2 -1.3 174.5 1 L 175.5 0 L 231.5 0 L 236 0.5 Q 235.3 2.8 237.5 2 L 239.5 1 L 244.5 4 L 246.5 4 L 250.5 6 L 252.5 6 Q 254.8 5.3 254 7.5 L 256.5 8 Q 259.8 6.9 259 9.5 L 261 9.5 L 261.5 11 L 263 10.5 L 263.5 12 L 265.5 12 Q 267.8 11.3 267 13.5 L 269 13.5 L 269.5 15 L 271 14.5 L 270.5 16 L 272.5 17 L 274.5 16 L 274.5 18 L 277.5 20 L 279 19.5 L 279.5 21 L 281 20.5 L 280.5 22 L 283.5 24 L 285.5 24 L 287 24.5 L 286.5 26 Q 289.8 24.9 289 27.5 L 293 30.5 L 293.5 32 L 295 31.5 L 295.5 34 Q 297.3 31.3 299 35.5 L 299.5 37 L 301 36.5 Q 298.7 37.8 301.5 39 L 303 38.5 L 307.5 46 L 309 45.5 L 312 49.5 L 312 52 L 316 54.5 L 315.5 56 L 318 57.5 Q 316.9 60.8 319.5 60 L 319.5 62 L 322 63.5 Q 324.8 65.5 324 70 L 326 70.5 L 325.5 72 L 327 72.5 L 326.5 74 L 329 75.5 L 328 77.5 L 331 79 L 330 81.5 L 332 82.5 L 331 85 L 333 85.5 L 332.5 87 Q 334.8 86.3 334 88.5 L 334 90.5 Q 333.3 93.1 336 92 L 336 94.5 L 336 96.5 L 338 99.5 L 337.5 101 Q 340.1 100.2 339 103.5 L 338.5 105 Q 341.1 104.2 340 107.5 L 339.5 109 Q 342.5 108.1 341 112.5 L 340 115 Q 343.7 113.7 342 119.5 L 341.5 121 L 343 121.5 L 343 128.5 L 343.5 130 L 342 130.5 L 344 131.5 L 344 133.5 L 344 150.5 L 343 151.5 L 343 159 L 341 159.5 Q 343.3 160.8 342 165.5 L 340.5 171 L 340 167 L 337.5 166 Q 335 167.2 336 171 L 333 172.5 Q 332.3 174.8 334.5 174 Q 337.3 175.4 336 180 Q 339 178.8 338 182.5 L 337 185 L 335 185.5 L 336 188.5 L 335 191 L 333 191.5 L 334 193.5 L 332 199 L 330 199.5 L 330 201.5 L 322.5 215 L 321 215.5 L 321 217.5 L 312.5 229 L 311 229.5 Q 313.7 231.3 309.5 233 L 308 233.5 L 309 234.5 L 295.5 248 L 287 254.5 L 289 255.5 L 286 257 Q 288.4 249.9 282 252 L 282 257 L 280 257 Q 281.5 260.8 278.5 260 L 266.5 268 L 255 272.5 L 255.5 274 L 253.5 274 L 233.5 280 L 166.5 280 L 146.5 274 L 144.5 272 L 131.5 267 Q 109.1 254.9 93 236.5 L 89.5 231 L 85 227.5 L 87 226.5 L 83 223.5 L 81.5 221 L 79 219.5 L 80 218.5 L 76 214.5 L 76 212.5 Q 76.8 210.3 74.5 211 Q 71.8 209.8 74 208.5 L 71 205.5 L 72 204.5 L 69 201.5 L 70 200.5 Q 70.8 198.3 68.5 199 L 68 196.5 Q 68.8 194.3 66.5 195 L 67 193.5 Q 67.8 191.3 65.5 192 L 64.5 188 L 66 187.5 L 64 187 Q 65.1 184.3 62.5 185 L 62 180.5 Q 63.5 176.1 60.5 177 L 61 175.5 L 62 173.5 L 60 173 Q 60.8 169.6 58 168.5 L 59 166.5 L 58 164 L 60 163.5 L 58 163 L 56 153.5 L 56 151.5 L 56 128.5 L 57 126.5 L 57 122.5 L 58 117 L 60 116.5 Q 56.5 115 59 113.5 L 58 111.5 L 60 107 L 62 106.5 L 60 103.5 L 62 103 L 64 95.5 Q 61.5 94 65 92.5 L 67 87.5 L 66 85 Q 68.7 86.1 68 83.5 L 67.5 82 L 69.5 83 L 69 81.5 L 72 75 L 74 74.5 L 73 72.5 Q 76.1 70.8 74.5 69 Q 76.8 69.8 76 67.5 L 79 65.5 L 77.5 63 L 79 63.5 L 81 60.5 L 80.5 59 L 83 57.5 L 87 52.5 L 86.5 51 Q 88.8 51.8 88 49.5 L 95 44 L 104 32 L 106 32 Q 104.9 29.3 107.5 30 L 110 29 Q 108.8 26 112.5 27 L 114 24 L 121 21 Q 119.8 18 123.5 19 L 126 18 Q 124.9 15.3 127.5 16 L 131 15 Q 129.7 11.3 135.5 13 L 135.5 11 L 139 11 Q 137.8 8 141.5 9 L 144.5 7 L 146.5 8 L 146.5 6 L 148.5 7 L 149 5 L 158.5 2 L 160.5 2 L 166.5 0 Z M 193 10 L 188 12 L 186 11 L 181 13 L 178 12 L 174 14 L 171 13 L 171 15 L 170 14 Q 166 13 167 16 L 163 15 L 163 17 L 160 16 L 160 18 L 157 17 L 157 19 L 155 18 L 155 20 L 153 19 L 147 21 L 147 23 Q 142 21 143 25 L 142 24 L 141 26 L 136 27 L 136 29 L 134 28 L 131 30 L 131 32 L 125 34 L 125 36 L 114 42 L 113 46 L 109 49 Q 110 51 107 50 L 107 52 L 105 52 L 105 54 L 99 59 Q 100 61 98 60 L 98 62 L 97 64 L 92 68 L 94 69 L 88 74 L 90 75 L 87 77 L 88 79 L 85 80 Q 86 83 83 85 L 84 87 L 83 87 L 81 90 L 82 91 Q 79 90 80 93 L 78 94 L 79 96 L 80 97 L 78 96 L 76 102 L 78 102 L 78 103 L 76 102 L 75 105 L 74 108 L 76 109 L 74 109 L 73 113 L 75 114 L 73 114 L 72 118 L 74 119 L 72 119 L 71 123 L 72 126 L 70 130 L 70 146 L 71 149 L 70 151 L 71 158 L 73 162 L 72 163 L 73 168 L 75 172 L 74 173 L 76 176 L 75 178 L 77 178 L 78 178 L 76 181 L 78 181 L 79 181 L 77 184 L 79 184 L 80 184 L 79 186 L 79 187 Q 81 186 80 189 L 82 190 L 81 190 L 81 191 Q 83 190 82 193 L 82 194 L 83 194 L 83 198 Q 86 197 85 200 L 85 202 L 90 206 L 89 206 L 90 208 Q 92 207 91 212 L 94 213 Q 96 214 94 216 L 98 218 L 96 219 L 101 222 L 103 226 Q 102 228 105 227 L 112 235 Q 114 234 113 237 L 128 248 L 148 259 L 162 264 L 166 264 L 169 266 L 184 269 L 186 268 L 197 270 L 200 268 L 201 269 L 200 269 L 200 270 L 224 268 L 228 266 L 240 264 L 242 262 Q 249 262 254 258 L 256 258 L 280 242 Q 282 243 281 240 L 288 236 L 299 225 L 298 224 L 300 223 Q 302 222 300 221 L 303 219 Q 310 211 315 200 L 315 198 L 317 197 L 318 194 L 319 194 Q 318 196 321 195 L 321 196 Q 317 195 319 201 Q 320 204 324 203 L 325 200 L 323 197 L 326 193 L 329 194 L 329 190 L 328 190 L 323 188 Q 322 185 325 186 L 325 182 L 324 182 L 322 180 L 324 180 L 326 173 L 325 170 L 327 169 L 328 164 Q 329 159 327 158 L 329 157 L 329 150 L 328 149 L 330 148 L 330 140 L 329 139 L 330 133 L 328 133 L 330 132 L 329 131 L 329 124 L 328 123 L 328 122 Q 330 116 327 117 L 328 115 L 324 108 L 325 106 Q 326 102 324 103 L 324 102 L 323 101 L 323 100 Q 324 96 322 97 L 322 96 L 321 95 L 321 94 L 319 93 L 320 91 L 319 90 L 319 89 Q 320 86 318 87 L 316 85 L 316 83 Q 317 80 315 81 L 315 80 L 312 78 L 313 76 L 312 76 L 312 75 L 311 74 Q 308 73 310 72 L 309 71 L 309 70 L 307 68 Q 304 67 306 66 L 305 62 L 300 60 Q 301 57 298 56 Q 299 53 296 54 L 296 53 L 287 43 L 286 44 L 286 43 L 279 38 L 279 37 L 276 34 Q 270 36 272 31 L 270 32 L 270 31 L 267 30 L 267 29 L 266 28 L 262 27 L 262 25 L 258 25 L 258 24 Q 256 25 255 22 L 252 23 L 251 20 L 249 21 L 249 19 L 247 20 L 246 18 L 243 19 L 243 18 L 240 16 L 238 17 L 236 17 L 238 16 L 234 14 L 230 15 L 229 13 L 227 14 L 223 12 L 221 12 L 219 13 L 219 12 L 218 11 L 215 12 L 209 11 L 207 11 L 206 10 L 195 10 L 193 10 Z " /><path fill="rgb(33,53,116)" stroke="rgb(33,53,116)" stroke-width="1" opacity="1" d="M 340.5 174 L 341 177.5 L 340 177.5 L 340.5 174 Z " /><path fill="rgb(33,53,116)" stroke="rgb(33,53,116)" stroke-width="1" opacity="1" d="M 317.5 189 L 316.5 191 L 314.5 192 L 315.5 190 L 317.5 189 Z " /><path fill="rgb(30,60,131)" stroke="rgb(30,60,131)" stroke-width="1" opacity="1" d="M 192.5 30 L 196.5 31 L 198.5 30 Q 200.3 32.8 206.5 31 L 210.5 31 L 214.5 32 L 216.5 32 L 218.5 31 L 218.5 33 L 220.5 32 L 222.5 33 L 224 32.5 L 224.5 34 L 227.5 33 L 229.5 35 L 232.5 36 L 234.5 35 L 234.5 37 L 238.5 38 L 240 37.5 L 240.5 39 L 242 38.5 L 242.5 40 L 244.5 39 L 244.5 41 L 250.5 44 L 252.5 43 L 252.5 45 L 254.5 46 Q 255.8 43.8 257 46.5 L 257.5 48 L 259.5 47 L 260.5 50 L 262.5 49 L 265.5 53 L 267 52.5 Q 264.8 53.7 267.5 55 L 271 56.5 L 271.5 58 L 273 57.5 L 273.5 60 L 274.5 59 L 280 64.5 L 279.5 66 Q 281.8 65.3 281 67.5 L 283 67.5 L 286 71.5 Q 283.3 73.3 287.5 75 L 290 76.5 L 289 78.5 L 293 81.5 L 292.5 83 L 294 83.5 Q 291.8 84.8 294.5 86 L 296 86.5 L 295.5 88 L 297 88.5 L 296.5 90 L 299 90.5 L 297 91.5 L 299 92.5 L 298.5 94 L 301 95.5 L 299 95.5 L 300.5 98 Q 302.8 97.3 302 99.5 L 301.5 101 L 303 101.5 L 302 104 L 304 104.5 L 303 107 L 305 107.5 L 304 109.5 Q 307.1 111.3 305.5 113 Q 308.1 112.2 307 115.5 L 307 117.5 L 308 121.5 Q 305.5 123 309 124.5 Q 307.5 130 310 131.5 L 308 132.5 L 310 133.5 L 310 135.5 L 310 148.5 L 308 150.5 L 309 157 L 307 157.5 L 308 162.5 L 307 167 L 305 167.5 L 306 171 L 304 171.5 L 304.5 173 L 303 173.5 L 304 176.5 L 303 179 L 301 179.5 L 302 181.5 L 297.5 190 L 296 190.5 L 297 192.5 L 286.5 207 L 285 207.5 L 286 208.5 L 283 211.5 L 273.5 222 L 265.5 228 L 263 228 L 261.5 231 L 255.5 235 L 254 234.5 Q 254.8 236.8 252.5 236 L 235.5 244 L 233 243 Q 234.3 246 230.5 245 L 219.5 248 L 217.5 247 L 215.5 249 L 203.5 249 L 201.5 250 L 199.5 249 L 197.5 250 L 196.5 249 L 186.5 249 L 185.5 248 L 174.5 247 L 149.5 238 Q 130.4 228.1 117 212.5 L 115.5 209 L 111 205.5 L 113 204.5 L 110 202.5 Q 110.8 200.3 108.5 201 L 105.5 195 L 103 193.5 L 104 191 L 101 189.5 L 102 187 L 100 186.5 L 102 185.5 L 100 185 Q 101.1 182.3 98.5 183 L 98 180.5 L 97 176.5 L 97.5 175 L 94.5 173 L 94 168.5 L 92 164.5 L 93 162.5 L 91 159.5 L 92 157.5 L 90 151.5 L 90 147.5 L 90 129.5 L 92 125.5 L 91 123.5 L 92 121 L 94 120.5 L 92 120 L 93 116.5 Q 90.5 115 94 113.5 Q 92.9 110.2 95.5 111 L 95 109.5 Q 94.3 107.3 96.5 108 L 96.5 107 L 95 106.5 L 98 104.5 L 97 103.5 L 98.5 101 L 97 100.5 L 100 98.5 L 98 97.5 L 100 97 L 99 94.5 L 100.5 95 L 102 94.5 L 102 92.5 Q 101.3 90.3 103.5 91 L 104 88.5 Q 103.3 86.3 105.5 87 L 105.5 86 L 104 85.5 L 106 85 L 108.5 81 L 110 80.5 L 110 78.5 L 110 77 L 112 77 Q 110.9 74.3 113.5 75 L 113.5 74 L 112 73.5 L 115 71.5 L 116 68 Q 120.7 67.6 123 63.5 Q 122.3 61.3 124.5 62 Q 128.2 60 126.5 58 L 129.5 56 L 137 51.5 L 136.5 50 L 143 47.5 L 142.5 46 L 152 42.5 L 151.5 41 L 156.5 39 L 158 39.5 L 158.5 38 Q 160 40.5 161.5 37 Q 165.8 37.8 166.5 35 L 168.5 36 L 171.5 34 L 173 34.5 Q 172.3 32.3 174.5 33 L 176.5 34 L 179.5 32 L 181.5 33 L 181.5 31 L 186.5 32 L 192.5 30 Z M 195 44 L 189 46 L 186 45 L 184 47 L 182 46 L 179 47 L 177 47 Q 174 46 175 49 L 173 48 L 171 49 Q 169 52 168 50 Q 165 49 166 52 L 165 51 L 162 53 Q 158 52 159 55 L 156 55 L 156 57 L 152 57 L 152 59 L 145 62 L 145 64 L 137 68 L 137 70 Q 134 75 128 76 L 121 88 L 118 90 L 120 91 L 117 93 L 118 95 L 117 95 L 115 98 L 116 99 L 114 98 L 114 100 L 113 102 L 114 103 Q 111 102 112 105 L 110 106 L 112 107 L 110 108 L 110 110 Q 111 112 109 111 L 109 113 L 107 117 L 107 119 L 106 122 L 108 123 L 106 123 L 105 126 L 106 128 L 104 132 L 104 146 L 104 148 L 105 152 L 105 154 L 106 156 L 105 158 L 107 158 L 108 158 L 106 161 L 108 165 L 107 166 L 109 168 L 108 169 L 110 169 L 111 169 L 109 172 L 111 172 L 110 175 L 112 175 L 113 175 L 112 177 L 114 178 L 113 178 L 114 181 L 113 182 L 116 185 L 115 186 L 120 190 L 118 191 L 120 191 L 122 195 L 122 197 L 126 199 L 129 205 Q 140 216 154 224 L 177 233 Q 183 232 187 235 L 214 235 L 224 233 L 243 226 L 258 216 Q 260 217 259 214 L 262 213 Q 264 214 263 212 L 271 205 Q 270 202 273 203 L 272 202 L 274 201 Q 276 200 274 199 L 277 197 Q 281 195 278 194 L 280 193 L 279 192 L 283 189 L 282 187 L 284 187 L 287 181 L 286 179 L 288 179 L 290 174 L 289 172 L 291 171 L 293 164 L 292 161 L 294 160 L 293 156 L 295 155 L 295 148 L 294 147 Q 297 144 296 138 L 296 136 L 294 135 Q 297 133 295 127 Q 291 125 294 124 Q 295 119 293 120 L 293 119 Q 294 114 292 115 L 292 114 L 291 113 L 291 112 Q 292 108 290 109 L 290 108 L 289 107 L 289 106 L 287 105 L 286 102 L 287 99 L 284 98 L 285 96 L 284 95 Q 281 94 283 93 L 282 92 L 282 91 L 281 90 Q 278 89 280 88 L 277 85 Q 278 82 276 83 Q 271 81 274 80 L 270 76 L 270 74 Q 267 75 268 73 L 265 69 L 264 70 L 263 69 L 260 67 L 260 66 L 255 63 L 252 60 L 251 60 L 249 59 L 248 56 L 245 57 L 244 54 L 242 55 L 240 54 L 240 52 L 238 53 L 236 52 Q 233 53 234 50 L 232 51 L 231 49 L 229 50 L 228 48 L 225 49 L 225 47 L 223 48 L 221 47 L 219 47 L 217 46 L 213 46 L 205 45 L 203 45 Q 201 43 197 44 L 195 44 Z " /><path fill="rgb(30,60,132)" stroke="rgb(30,60,132)" stroke-width="1" opacity="1" d="M 194.5 44 L 196.5 44 Q 201.2 42.7 202.5 45 L 204.5 45 L 212.5 46 L 216.5 46 L 218.5 47 L 220.5 47 L 222.5 48 L 224.5 47 L 224.5 49 L 228 48 L 228.5 50 L 231 49 L 231.5 51 L 234 50 Q 232.9 52.7 235.5 52 L 237 51.5 L 236.5 53 L 239.5 52 L 239.5 54 L 241.5 55 L 243.5 54 L 244.5 57 L 247.5 56 L 248.5 59 L 250.5 60 L 252 59.5 L 252.5 61 L 254 60.5 Q 251.8 61.8 254.5 63 L 256.5 62 L 257.5 65 L 260 65.5 L 259.5 67 L 263 68.5 L 263.5 70 L 264.5 69 L 268 72.5 Q 267.3 74.8 269.5 74 L 269.5 76 L 274 79.5 Q 271.3 81.3 275.5 83 Q 277.8 82.3 277 84.5 L 279 84.5 L 278 85.5 L 280.5 90 L 282 90.5 L 281.5 92 L 283 92.5 Q 280.8 93.8 283.5 95 L 285 95.5 L 284 97.5 L 287 99 L 286 101.5 L 287 105 L 289 105.5 L 288.5 107 L 290 107.5 L 289.5 109 Q 292.1 108.2 291 111.5 L 290.5 113 L 292 113.5 L 291.5 115 Q 294.5 114.1 293 118.5 L 292.5 120 Q 295.5 119.1 294 123.5 Q 291.5 125 295 126.5 Q 296.8 132.8 294 134.5 L 296 135.5 L 296 137.5 Q 296.8 143.8 294 146.5 L 295 147.5 L 295 155 L 293 155.5 L 294 160 L 292 160.5 L 293 163.5 L 291 171 L 289 171.5 L 290 173.5 L 283 188.5 L 280.5 191 L 279 191.5 L 279.5 193 L 278 193.5 Q 280.7 195.3 276.5 197 L 275 197.5 Q 277.7 199.3 273.5 201 L 272 201.5 L 272.5 203 Q 270.3 202.3 271 204.5 L 263 211.5 Q 263.8 213.8 261.5 213 L 259 214 Q 260.1 216.7 257.5 216 L 242.5 226 L 223.5 233 L 213.5 235 L 186.5 235 Q 183.2 232.3 176.5 233 L 153.5 224 Q 139.5 216 129 204.5 L 125.5 199 L 122 196.5 L 122 194.5 L 119.5 191 L 118 190.5 L 120 189.5 L 115 185.5 L 116 184.5 L 113 181.5 L 114 180.5 L 112.5 178 L 114 177.5 L 112 177 Q 113.1 174.3 110.5 175 L 111 173.5 Q 111.8 171.3 109.5 172 L 110 170.5 Q 110.8 168.3 108.5 169 L 106 160.5 L 107 158.5 L 105 157.5 L 106 155.5 L 105 153.5 L 105 151.5 L 104 147.5 L 104 145.5 L 104 131.5 L 106 127.5 L 105 125.5 L 106 123 L 108 122.5 L 106 122 L 107 118.5 L 107 116.5 L 109 112.5 L 108.5 111 Q 110.8 111.8 110 109.5 L 109.5 108 L 112 106.5 L 110 105.5 L 112 105 L 111 102.5 L 112.5 103 L 114 102.5 L 113 100.5 L 113.5 98 Q 115.8 98.8 115 96.5 L 118 94.5 L 117 92.5 L 120 90.5 L 118 89.5 L 121 87.5 L 128 76 Q 134.1 75.2 137 69.5 L 136.5 68 L 145 63.5 L 144.5 62 L 152 58.5 L 151.5 57 L 156 56.5 L 155.5 55 L 159 55 Q 157.8 52 161.5 53 L 164.5 51 L 166 51.5 Q 165.3 49.3 167.5 50 Q 169 52.5 170.5 49 L 172.5 48 L 175 49 Q 173.9 46.3 176.5 47 L 178.5 47 L 181.5 46 L 183.5 47 L 183.5 45 L 188.5 46 L 194.5 44 Z M 188 59 L 187 61 L 185 61 L 183 60 L 175 64 L 173 63 L 170 65 Q 166 64 167 67 L 155 72 L 155 74 L 148 78 L 145 80 L 145 82 L 140 86 L 138 86 L 138 89 Q 135 88 136 91 L 134 92 L 136 92 L 136 93 L 134 93 L 134 95 Q 131 94 132 97 L 132 99 L 131 99 L 127 105 L 128 107 L 127 106 L 125 107 L 126 109 L 126 111 L 124 111 L 125 114 L 124 113 L 122 114 L 124 117 L 122 117 Q 123 121 120 124 L 122 125 L 120 125 L 119 128 L 120 130 L 118 134 L 119 136 L 118 142 L 118 144 L 119 150 L 119 152 L 120 155 L 122 156 L 120 159 L 123 161 L 122 163 L 124 164 L 123 166 L 123 167 Q 125 166 124 169 L 126 170 L 125 170 L 126 174 Q 128 173 127 176 L 129 177 L 128 177 L 128 178 Q 130 177 129 180 L 132 182 L 130 183 L 132 183 Q 134 184 132 186 L 136 188 L 135 190 L 138 191 L 141 197 L 151 205 L 158 208 L 157 210 L 173 217 L 191 221 L 193 220 L 195 221 L 204 221 L 205 220 L 207 221 L 212 221 L 210 220 L 210 219 L 214 220 L 219 218 L 221 219 L 228 217 L 231 214 L 235 214 L 239 212 L 251 204 Q 255 202 252 201 L 258 198 L 261 194 L 264 191 L 263 190 L 265 189 L 271 180 L 271 178 L 273 177 L 275 173 L 274 171 L 276 171 L 277 168 L 276 166 L 278 165 L 279 163 L 277 162 L 279 161 L 278 158 L 280 157 L 281 146 L 281 144 L 280 142 Q 279 139 282 140 L 280 138 L 281 137 L 281 129 L 280 128 Q 282 122 278 123 L 279 121 Q 280 118 278 119 L 278 118 Q 279 114 277 115 L 277 114 L 275 113 L 276 110 L 274 110 L 275 107 L 272 106 L 273 104 L 272 103 L 272 102 L 271 101 L 271 100 L 270 99 Q 265 97 268 96 L 267 95 L 267 94 L 266 93 Q 261 91 264 90 L 261 86 L 259 86 Q 260 83 258 84 L 258 83 L 254 80 L 250 76 L 249 76 L 247 75 Q 243 73 245 71 L 243 72 L 241 71 L 240 68 L 238 69 L 236 68 L 236 66 L 234 67 L 229 65 L 229 63 L 227 64 L 226 62 L 223 63 L 223 61 L 221 62 L 218 60 L 216 61 L 214 61 L 211 60 L 209 60 L 207 59 L 196 59 L 195 60 L 193 59 L 190 60 L 188 59 Z " /><path fill="rgb(34,51,109)" stroke="rgb(34,51,109)" stroke-width="1" opacity="1" d="M 92.5 0 L 131.5 0 L 133 1.5 Q 131.8 4.3 130.5 2 Q 128.3 1.3 129 3.5 L 127 4.5 L 126.5 3 L 125 5.5 L 125.5 7 L 123.5 7 L 121 7.5 L 121.5 9 L 119.5 8 L 115 10.5 L 116 12.5 L 114.5 13 L 113 12.5 L 109.5 17 Q 108 14.5 106.5 18 Q 101 18.5 99 22.5 L 100 24.5 L 97 25.5 L 97.5 27 L 95.5 26 L 95 27.5 L 95.5 29 L 93.5 28 L 93 29.5 L 93.5 31 L 91.5 30 L 91 31.5 L 91.5 33 L 89.5 32 L 89 33.5 L 89.5 35 L 87.5 34 L 87 35.5 L 87.5 37 L 85 37.5 L 85.5 39 Q 80.8 38.3 80 41.5 L 81 43.5 L 79.5 43 L 78 43.5 L 79 44.5 L 74 49.5 L 73 51.5 L 73.5 55 L 71.5 54 L 69 57.5 L 69.5 59 L 68 59.5 L 70 60.5 L 68.5 61 L 67 60.5 L 66 62.5 Q 68.3 63.7 65.5 65 L 62.5 67 L 62.5 68 L 64 68.5 L 62 69 Q 63.1 71.7 60.5 71 L 60.5 72 L 62 72.5 L 60 73 L 61 75.5 L 58 77 L 59 79.5 L 57.5 79 L 56 79.5 L 58 82.5 L 56 83 Q 57.1 85.7 54.5 85 L 54.5 86 L 56 86.5 L 54 87 L 55 89.5 Q 51.9 91.3 53.5 93 L 52 93 L 52 97 L 50 97 L 50 100.5 L 49 103 L 51 103.5 L 48 108 L 50 108.5 L 48 109 Q 48.8 112.4 46 113.5 L 47 115.5 L 46 120 L 48 120.5 L 46 121 Q 44.4 123.1 45 128.5 L 45 130.5 L 44 139.5 L 44 141.5 L 45 144.5 L 45 146.5 Q 43.8 151.3 46 152.5 L 45 155.5 L 46 159 L 48 159.5 L 46 160 L 47 162.5 L 46 164.5 L 49 166.5 L 47 167.5 L 48 171 L 50 171.5 L 48 172 L 51 181.5 Q 48.5 183 52 184.5 Q 50.9 187.8 53.5 187 L 53.5 188 L 52 188.5 L 55.5 194 L 57 194.5 L 56 197 L 58 197.5 L 57 200 L 59 200.5 L 58 202.5 L 61 204.5 L 60 207 L 63 208.5 L 61 208.5 L 60.5 210 L 60 208 L 56 210.5 L 58 214.5 Q 54.9 216.2 56.5 218 L 54.5 217 L 52 218 L 53 222 L 56.5 221 Q 54.9 222.8 58 224.5 L 57 225.5 Q 56 230 58.5 231 L 61 228.5 L 61.5 221 L 62.5 223 L 66 221 Q 67.5 217.3 64.5 218 L 64.5 217 L 66.5 216 L 67 218.5 Q 66.3 220.8 68.5 220 L 69.5 223 L 72 224.5 L 71.5 229 L 71 224 L 69 224 L 69 228 Q 66.3 226.9 67 229.5 L 66 231.5 L 70.5 238 L 72.5 235 Q 70.3 235.8 71 233.5 L 72.5 234 Q 74.8 234.8 74 232.5 L 75 230.5 L 74.5 229 L 81 236.5 L 81 238.5 Q 80.3 241.1 83 240 L 83 242.5 L 85 242.5 Q 84.3 244.8 86.5 244 L 95 252.5 L 94.5 254 L 97.5 253 L 96.5 256 L 99.5 254 L 98 256.5 L 98.5 258 L 100.5 257 L 105.5 263 L 107.5 262 L 113.5 269 L 114 267.5 L 113.5 266 L 117.5 270 L 118.5 269 L 120 269.5 L 118 270.5 L 119.5 273 L 121.5 272 L 124.5 276 L 126 275.5 L 125.5 274 L 128.5 278 L 130 277.5 L 129.5 276 L 130.5 279 L 133.5 278 L 132.5 280 L 93.5 280 L 90 278.5 Q 92.3 277.3 89.5 276 L 88.5 278 Q 85.2 271.9 78 269.5 L 79 267 L 76.5 268 L 77 266.5 Q 77.8 264.3 75.5 265 L 74 265.5 L 75 263 L 72.5 264 L 73 262.5 Q 73.8 260.3 71.5 261 L 70 261.5 L 71 259 L 68.5 260 Q 70.1 258.3 67 256.5 L 66.5 254 L 65.5 256 L 65 253.5 L 58 246.5 L 57 243 Q 54.3 244.1 55 241.5 Q 52.3 240.4 53 237 L 51 236.5 L 52 234 L 49 233.5 L 51 232.5 L 47 230.5 L 48 228.5 L 46 228.5 L 46.5 227 L 45 226.5 L 46 224.5 L 44 224.5 L 44.5 223 Q 42.3 223.8 43 221.5 L 42.5 219 L 41 218.5 L 42 216.5 L 40 216.5 L 40.5 215 L 39 214.5 L 40 212.5 L 38 212.5 L 38.5 211 L 37 210.5 L 38 208.5 L 36 208.5 L 37 205.5 L 34 203.5 L 35 201.5 L 32 196.5 L 32.5 195 Q 30.3 195.8 31 193.5 L 30 189.5 L 30.5 188 Q 28.3 188.8 29 186.5 L 29.5 185 Q 27.3 185.8 28 183.5 Q 30.5 182 27 180.5 L 28 177.5 L 26 177 L 25 166.5 L 25.5 165 L 24 164.5 L 24 157.5 L 22 146.5 L 23 144.5 L 22 142.5 L 23 140.5 L 23 138.5 L 22 134.5 L 24 124.5 L 24 122.5 Q 23 114.5 26 110.5 L 26 106.5 Q 24.5 102.1 27.5 103 L 28 98.5 Q 26.5 94.1 29.5 95 L 30 92.5 Q 29 87.5 32 86.5 L 32 84.5 Q 32.6 77.1 37 73.5 L 36 71 L 38 70.5 L 38 68.5 Q 37.3 66.3 39.5 67 L 40 64.5 Q 39.3 62.3 41.5 63 L 41 61.5 L 44 58.5 L 44 56.5 Q 43.3 54.3 45.5 55 L 46 52.5 L 48 49.5 L 50 45 L 52 44.5 L 51.5 43 L 53 43.5 L 55 40.5 L 54.5 39 L 57 37.5 L 58.5 33 L 61 34.5 L 60 31 L 63 29.5 Q 61.9 26.2 64.5 27 L 66.5 23 L 69.5 25 L 68 22.5 L 69 21.5 L 73 16.5 L 77 14 Q 75.9 11.3 78.5 12 L 81 11 L 81.5 9 L 83 9.5 L 83.5 7 L 84.5 9 L 85 6 Q 87.7 7.1 87 4.5 Q 89 0 91 3.5 L 88 4.5 L 89 8.5 L 86 9.5 L 91.5 17 L 93 13.5 L 92.5 12 L 96 11 L 96 9 L 94 9 Q 95.1 6.3 92.5 7 L 93 5.5 L 92 2.5 L 92.5 0 Z M 111 13 L 109 16 L 112 14 L 111 13 Z M 78 235 L 79 237 Q 80 234 78 235 Z M 60 246 L 61 248 Q 62 245 60 246 Z M 107 263 L 108 265 Q 109 262 107 263 Z M 87 273 L 86 275 L 89 276 L 87 273 Z " /><path fill="rgb(34,51,109)" stroke="rgb(34,51,109)" stroke-width="1" opacity="1" d="M 266.5 0 L 268.5 1 L 269.5 0 L 303.5 0 L 305.5 0 L 309 0.5 L 308.5 2 Q 310.8 1.3 310 3.5 L 311.5 3 L 313 3 L 313 5 Q 315.7 3.9 315 6.5 L 324 14 L 325.5 17 L 327 17 L 327 21 Q 323.7 19.7 325 24.5 L 327 24.5 Q 326 29 328.5 30 Q 332.7 31.3 331 26.5 L 334.5 24 L 335.5 27 Q 337.8 26.3 337 28.5 L 336.5 30 L 339 30.5 L 338.5 32 L 344 34 L 345 37.5 L 343.5 37 L 341 36.5 L 342 34.5 L 340 35.5 L 339 39.5 Q 339.5 42.5 343.5 42 L 345 41.5 L 344 46.5 L 346 46.5 L 346.5 51 L 350 48.5 L 349 42 L 351 42.5 L 350 47 L 352 47.5 L 350.5 50 L 353 51.5 L 355 54.5 L 355 56.5 L 356.5 59 Q 358.8 58.3 358 60.5 L 359 62.5 L 359 64.5 L 361 67.5 L 364 71.5 L 362.5 74 L 366 75.5 L 365 76.5 L 366.5 79 Q 365.3 76.8 364 79.5 L 368 81.5 Q 364.5 83 367 84.5 Q 366.3 86.8 368.5 86 L 371 90.5 L 370 92.5 L 372 93.5 L 372 99.5 Q 370.5 103.9 373.5 103 Q 371.9 104.8 375 106.5 L 374 110.5 L 376 113.5 L 376 117.5 L 374 119.5 L 375 120.5 L 375.5 122 L 376.5 119 L 377 127.5 L 377 129.5 L 378 131.5 L 378 133.5 L 378 148.5 L 376 151.5 L 377 154 L 375 154.5 L 377 155 L 376.5 161 L 375.5 156 L 374 158.5 L 375.5 164 L 376.5 162 L 377 163.5 L 373 170.5 L 375 171 L 374.5 175 L 374 172 L 372 172.5 L 374 176.5 L 372 177.5 L 373 180.5 L 372.5 183 L 371.5 180 L 370 182.5 L 372 186.5 L 370.5 191 Q 369.3 188.8 368 191.5 L 370 192.5 L 368.5 197 L 366 196 Q 364.9 198.7 367.5 198 L 367 199.5 L 365.5 203 L 364 203.5 L 365 207.5 L 364 207.5 Q 364.8 205.3 362.5 206 L 363 207.5 L 362 210.5 L 363 212.5 L 362 212.5 L 361.5 211 L 360 213.5 L 361 216 L 357 217.5 L 358.5 218 L 360 217.5 L 358.5 221 L 356 220 L 357 224 L 353 225.5 L 354.5 228 L 350 230.5 L 350.5 232 L 353 230.5 Q 353.7 233.1 351 232 L 351 234.5 Q 349.8 237.3 348.5 235 L 347 235.5 L 348.5 238 L 346 239.5 L 346.5 241 Q 345.3 238.8 344 241.5 L 345 244 L 341 246.5 L 340.5 249 L 338.5 249 L 336 250.5 L 336.5 252 L 339 250.5 L 337 253.5 L 334 254.5 L 334.5 256 L 332 256.5 L 333 259 L 331.5 259 L 321 269.5 L 321 271 L 319 271 Q 320.1 273.7 317.5 273 L 314 274.5 L 314.5 276 Q 313.3 273.7 312 276.5 L 312.5 278 Q 311 275.5 309.5 279 L 306.5 280 L 266.5 280 L 265 277 L 267 277.5 L 266.5 279 L 270 279 Q 268.9 276.3 271.5 277 L 275.5 274 L 277.5 274 L 280 272.5 L 281.5 270 L 283.5 271 L 284 269.5 L 283.5 268 L 286 269 L 287.5 266 L 289.5 267 L 295.5 260 L 297.5 261 L 298.5 259 L 297 258.5 L 298.5 258 Q 300.3 260.8 302 256.5 Q 301.3 254.3 303.5 255 L 307 252.5 L 305 251.5 L 306.5 251 Q 307.8 253.3 309 250.5 L 307 249.5 L 308.5 249 Q 309.7 251.3 311 248.5 L 309 247.5 L 310.5 247 Q 311.8 249.2 313 246.5 L 311 245.5 L 312.5 245 Q 313.8 247.3 315 244.5 L 313 243.5 L 314.5 243 Q 315.8 245.3 317 242.5 L 315 241.5 L 318 240 Q 316.9 237.3 319.5 238 L 321 235 L 325 232.5 L 324 230.5 L 329 226.5 L 327 225.5 L 330 224 Q 328.9 221.3 331.5 222 Q 334.3 220.8 332 219.5 L 333.5 217 L 336 215.5 L 336 213.5 Q 335.3 211.3 337.5 212 L 338.5 210 L 337 209.5 L 340 207.5 L 340 205.5 L 340.5 203 L 342 203.5 L 341 201.5 L 343 200.5 L 342 198.5 L 345 196.5 L 344 195.5 L 345.5 193 L 344 192.5 L 347 190.5 L 346 188 L 348 187.5 L 347 185 L 349 184.5 L 348 183.5 L 349.5 181 L 348 180.5 L 350 180 L 351 175.5 L 350 173.5 Q 353.5 172 351 170.5 Q 350.3 168.3 352.5 169 L 353 166.5 L 352 163.5 L 353.5 161 L 352 160.5 L 354 160 L 353 155.5 L 355 154.5 L 355 152.5 L 355 125.5 L 353.5 125 L 354 123.5 Q 355.5 119.1 352.5 120 L 353 118.5 L 352 115.5 L 353 111 Q 350 112.3 351 108.5 L 350 105.5 L 351 101.5 L 348 100 L 349 95 Q 346 96.3 347 92.5 L 346 90.5 L 346.5 89 L 344 87.5 L 345 84.5 Q 345.8 82.3 343.5 83 L 342 80.5 L 342.5 79 L 341 78.5 L 341.5 77 Q 339.3 77.8 340 75.5 L 337 69.5 L 337.5 68 L 335 66.5 L 334 64.5 L 334.5 63 L 332 61.5 L 333 59.5 L 328 55.5 L 329 53.5 L 324 49.5 L 325 47.5 L 323 47 Q 324.1 44.3 321.5 45 L 318 40 L 316 39.5 L 316.5 38 L 314 37.5 L 315 35.5 L 313.5 36 L 312 35.5 L 313 33 L 307 28.5 Q 307.8 26.3 305.5 27 L 304 27.5 L 305 25.5 L 303.5 26 L 302 25.5 L 303 23.5 L 301.5 24 L 298.5 22 Q 295.8 16.6 293 18.5 L 293 16.5 L 292.5 15 L 290.5 16 L 287 14.5 L 287 12.5 L 286.5 11 L 284 12 Q 285.1 9.3 282.5 10 L 280.5 7 L 278.5 8 Q 276.2 3.8 274 5.5 Q 274.8 3.3 272.5 4 L 271 4.5 L 271.5 3 L 269.5 2 L 267.5 3 L 266.5 0 Z M 370 90 L 368 92 L 370 92 L 370 90 Z M 342 242 L 342 244 L 344 243 L 342 242 Z M 330 257 L 330 259 L 332 258 L 330 257 Z M 329 259 L 318 271 L 330 260 L 329 259 Z M 316 271 L 316 273 L 318 272 L 316 271 Z " /><path fill="rgb(34,51,109)" stroke="rgb(34,51,109)" stroke-width="1" opacity="1" d="M 331.5 18 L 332 20.5 L 331 20.5 L 331.5 18 Z " /><path fill="rgb(34,51,109)" stroke="rgb(34,51,109)" stroke-width="1" opacity="1" d="M 39.5 30 L 39 31.5 L 38.5 34 L 38 31.5 L 39.5 30 Z " /><path fill="rgb(34,51,109)" stroke="rgb(34,51,109)" stroke-width="1" opacity="1" d="M 40.5 33 L 41 35.5 L 40 35.5 L 40.5 33 Z " /><path fill="rgb(34,51,109)" stroke="rgb(34,51,109)" stroke-width="1" opacity="1" d="M 349.5 35 L 350.5 37 L 348.5 38 L 349 36.5 L 349.5 35 Z " /><path fill="rgb(34,51,109)" stroke="rgb(34,51,109)" stroke-width="1" opacity="1" d="M 40.5 39 L 41 41.5 L 40 41.5 L 40.5 39 Z " /><path fill="rgb(34,51,109)" stroke="rgb(34,51,109)" stroke-width="1" opacity="1" d="M 38.5 40 L 39 43.5 L 38 43.5 L 38.5 40 Z " /><path fill="rgb(34,51,109)" stroke="rgb(34,51,109)" stroke-width="1" opacity="1" d="M 336.5 168 L 337 170.5 L 335 171.5 L 336.5 168 Z " /><path fill="rgb(34,51,109)" stroke="rgb(34,51,109)" stroke-width="1" opacity="1" d="M 339.5 168 L 340 170.5 L 339 170.5 L 339.5 168 Z " /><path fill="rgb(34,51,109)" stroke="rgb(34,51,109)" stroke-width="1" opacity="1" d="M 336.5 175 L 337 178.5 L 336 178.5 L 336.5 175 Z " /><path fill="rgb(34,51,109)" stroke="rgb(34,51,109)" stroke-width="1" opacity="1" d="M 339.5 176 L 340 178.5 L 339 178.5 L 339.5 176 Z " /><path fill="rgb(34,51,109)" stroke="rgb(34,51,109)" stroke-width="1" opacity="1" d="M 320.5 183 L 321 186.5 L 320 186.5 L 320.5 183 Z " /><path fill="rgb(34,51,109)" stroke="rgb(34,51,109)" stroke-width="1" opacity="1" d="M 323.5 183 L 324 185.5 L 323 185.5 L 323.5 183 Z " /><path fill="rgb(34,51,109)" stroke="rgb(34,51,109)" stroke-width="1" opacity="1" d="M 320.5 197 L 321 200.5 L 320 200.5 L 320.5 197 Z " /><path fill="rgb(34,51,109)" stroke="rgb(34,51,109)" stroke-width="1" opacity="1" d="M 323.5 197 L 324 201.5 L 323 201.5 L 323.5 197 Z " /><path fill="rgb(34,51,109)" stroke="rgb(34,51,109)" stroke-width="1" opacity="1" d="M 62.5 211 L 65 212.5 L 64 214.5 L 64.5 216 Q 61.2 214.9 62 217.5 L 61 217.5 L 63 212.5 L 62.5 211 Z " /><path fill="rgb(34,51,109)" stroke="rgb(34,51,109)" stroke-width="1" opacity="1" d="M 282.5 253 L 283 255.5 L 282 255.5 L 282.5 253 Z " /><path fill="rgb(34,51,109)" stroke="rgb(34,51,109)" stroke-width="1" opacity="1" d="M 285.5 253 L 286 255.5 L 285 255.5 L 285.5 253 Z " /><path fill="rgb(34,51,109)" stroke="rgb(34,51,109)" stroke-width="1" opacity="1" d="M 285.5 257 L 288 257.5 L 285.5 258 L 285.5 257 Z " /><path fill="rgb(34,51,109)" stroke="rgb(34,51,109)" stroke-width="1" opacity="1" d="M 282.5 263 L 284 266.5 L 282 265.5 L 282.5 263 Z " /><path fill="rgb(34,51,109)" stroke="rgb(34,51,109)" stroke-width="1" opacity="1" d="M 285.5 263 L 286 265.5 L 285 265.5 L 285.5 263 Z " /><path fill="rgb(32,56,122)" stroke="rgb(32,56,122)" stroke-width="1" opacity="1" d="M 192.5 10 L 194.5 10 L 205.5 10 L 206.5 11 L 208.5 11 L 214.5 12 L 217.5 11 L 219 11.5 L 218.5 13 L 220.5 12 L 222.5 12 L 226.5 14 L 229 13 L 229.5 15 L 233.5 14 L 243 17.5 L 242.5 19 L 246 18 L 246.5 20 L 248.5 19 L 248.5 21 L 250.5 20 L 252 23 L 254.5 22 Q 256.3 25.1 258 23.5 L 258 25 L 262 25 L 262 26.5 L 265.5 28 L 267 28.5 L 266.5 30 L 272 31 Q 270.3 35.5 275.5 34 L 279 36.5 L 278.5 38 Q 289.4 43.1 296 52.5 L 295.5 54 Q 298.8 52.9 298 55.5 Q 300.8 56.6 300 60 L 305 62 L 306 65.5 Q 303.8 66.8 306.5 68 L 309 69.5 L 308.5 71 L 310 71.5 Q 307.8 72.8 310.5 74 L 313 75.5 L 312 77.5 L 315 79.5 L 314.5 81 Q 316.8 80.3 316 82.5 L 316 84.5 L 317.5 87 Q 319.8 86.3 319 88.5 L 318.5 90 L 320 90.5 L 319 93 L 321 93.5 L 320.5 95 L 322 95.5 L 321.5 97 Q 324.1 96.2 323 99.5 L 322.5 101 L 324 101.5 L 323.5 103 Q 326.1 102.2 325 105.5 L 324 107.5 L 328 114.5 L 326.5 117 Q 329.9 116.1 328 121.5 L 327.5 123 L 329 123.5 L 329 130.5 L 329.5 132 L 328 132.5 L 330 133 L 329 138.5 L 330 139.5 L 330 148 L 328 148.5 L 329 149.5 L 329 157 L 327 157.5 Q 329.3 158.7 328 163.5 L 327 169 L 325 169.5 L 326 172.5 L 323.5 180 L 322 179.5 L 322 181 L 320 181.5 L 320 189 L 317.5 189 L 314 191.5 L 315 194 L 318 194.5 L 317 197 L 315 197.5 L 315 199.5 Q 310.5 211 302.5 219 L 301 219.5 Q 303.8 221.2 299.5 223 L 298 223.5 L 299 224.5 L 287.5 236 L 281 240 Q 282.1 242.7 279.5 242 L 255.5 258 L 253.5 258 Q 249 261.5 241.5 262 L 239.5 264 L 227.5 266 L 223.5 268 L 199.5 270 L 197.5 269 L 195.5 269 L 186.5 269 L 185.5 268 L 183.5 269 L 168.5 266 L 165.5 264 L 161.5 264 L 147.5 259 L 127.5 248 L 113 237 Q 114.1 234.3 111.5 235 L 104.5 227 Q 102.3 227.8 103 225.5 L 101 222 L 96 218.5 L 98 217.5 L 94 215.5 Q 96.3 214.3 93.5 213 L 91 211.5 Q 92.5 207.1 89.5 208 L 87 205.5 L 88 204.5 L 85 201.5 L 85 199.5 Q 85.7 196.9 83 198 L 83 194 L 81.5 194 L 82 192.5 Q 82.8 190.3 80.5 191 L 80.5 190 L 82 189.5 L 80 189 Q 81.1 186.3 78.5 187 L 79 185.5 Q 79.8 183.3 77.5 184 L 78 182.5 Q 78.8 180.3 76.5 181 L 77 179.5 Q 77.8 177.3 75.5 178 L 76 176.5 L 74 172.5 L 75 171.5 L 73 167.5 L 72 162.5 L 73 161.5 L 71 157.5 L 70 150.5 L 71 148.5 L 70 145.5 L 70 129.5 L 72 125.5 L 71 122.5 L 72 119 L 74 118.5 L 72 118 L 73 114 L 75 113.5 L 73 113 L 74 109 L 76 108.5 L 74 107.5 L 75 104.5 L 77 100.5 L 76 99.5 Q 79.1 97.8 77.5 96 Q 79.8 96.8 79 94.5 L 78.5 93 L 81.5 91 L 81 89.5 L 82.5 87 L 84 86.5 L 83 84.5 Q 85.8 83.4 85 80 L 87 79.5 L 85 78.5 L 87 78 L 88.5 75 L 90 74.5 L 88 73.5 L 94 68.5 L 92 67.5 L 97 64 L 98 61.5 L 97.5 60 Q 99.8 60.8 99 58.5 L 105 54 L 105 52 L 107 52 L 107 50 Q 109.7 51.1 109 48.5 L 113 46 L 114 42 L 122 37.5 L 121.5 36 L 123.5 37 L 124.5 34 L 129 32.5 L 128.5 31 L 130.5 32 L 130.5 30 L 133.5 28 L 135.5 29 L 135.5 27 L 139 26.5 L 138.5 25 L 141 26 L 141.5 24 L 143 24.5 Q 142.1 21.5 146.5 23 L 146.5 21 L 152.5 19 L 154.5 20 L 154.5 18 L 156.5 19 L 157 17 L 159.5 18 L 160 16 L 162.5 17 L 163 15 L 167 16 Q 165.8 13 169.5 14 L 172.5 13 L 174.5 13 L 177.5 12 Q 179 14.5 180.5 11 L 182.5 12 L 185.5 11 L 187.5 12 L 192.5 10 Z M 193 30 L 187 32 L 184 31 L 182 33 L 180 32 L 177 34 L 175 33 Q 172 32 173 35 L 172 34 L 169 36 L 167 35 Q 166 38 162 37 Q 160 40 159 38 L 158 40 L 157 39 L 152 41 L 152 43 L 143 46 L 143 48 L 137 50 L 137 52 L 130 56 L 127 58 Q 128 60 125 62 Q 122 61 123 64 Q 121 68 116 68 L 115 72 L 114 75 Q 111 74 112 77 L 110 77 L 110 79 L 110 81 L 109 81 L 106 85 L 104 86 L 106 86 L 106 87 Q 103 86 104 89 L 104 91 Q 101 90 102 93 L 102 95 Q 99 94 100 97 L 98 98 L 100 99 L 97 101 L 99 101 L 97 104 L 98 105 L 95 107 L 97 107 L 97 108 Q 94 107 95 110 L 96 111 Q 93 110 94 114 Q 90 115 93 117 L 92 120 L 94 121 L 92 121 L 91 124 L 92 126 L 90 130 L 90 148 L 90 152 L 92 158 L 91 160 L 93 163 L 92 165 L 94 169 L 94 173 L 96 173 L 97 173 L 96 175 L 98 176 L 97 179 L 99 179 L 98 181 L 98 183 L 100 183 L 101 183 L 100 185 L 102 186 L 100 187 L 102 187 L 101 190 L 104 191 L 103 190 L 105 191 L 104 193 L 106 194 L 104 195 L 106 195 Q 108 196 107 200 L 110 201 L 111 201 L 110 203 L 114 206 L 113 205 L 111 206 L 116 209 L 117 213 Q 130 228 150 238 L 175 247 L 186 248 L 187 249 L 197 249 L 198 250 L 200 249 L 202 250 L 204 249 L 216 249 L 218 247 L 220 248 L 231 245 Q 234 246 233 243 L 236 244 L 253 236 Q 255 237 254 235 L 256 235 L 262 231 L 263 228 L 266 228 L 274 222 L 283 212 L 286 209 L 285 208 L 287 207 L 297 193 L 296 191 L 299 189 L 298 187 L 300 187 L 302 182 L 301 180 L 303 179 L 304 177 L 303 174 L 305 173 L 304 172 L 306 171 L 305 168 L 307 167 L 308 163 L 307 158 L 309 157 L 308 151 L 310 149 L 310 136 L 310 134 L 308 133 L 310 132 Q 308 130 309 125 Q 305 123 308 122 L 307 118 L 307 116 Q 308 112 306 113 Q 307 111 304 110 L 305 108 L 303 107 L 304 105 L 302 104 L 303 102 L 301 101 L 302 98 L 299 97 L 300 95 L 299 94 L 299 93 L 297 92 L 299 91 L 297 90 L 297 89 L 296 88 L 296 87 L 295 86 Q 292 85 294 84 L 293 83 L 293 82 L 289 79 L 290 77 L 289 77 L 289 76 L 288 75 Q 283 73 286 72 L 283 68 L 281 68 Q 282 65 280 66 L 280 65 L 275 59 L 274 60 L 273 58 L 272 58 L 271 57 L 268 55 L 265 52 Q 264 49 263 51 L 261 50 L 260 47 L 258 48 L 257 47 Q 256 44 255 46 L 253 45 L 253 43 L 251 44 L 245 41 L 245 39 L 243 40 L 242 39 L 241 39 L 240 38 L 239 38 L 235 37 L 235 35 L 233 36 L 230 35 L 226 33 L 225 34 L 224 32 L 222 33 L 220 33 L 217 32 L 215 32 L 211 31 L 207 31 Q 200 33 199 30 L 197 31 L 193 30 Z " /><path fill="rgb(32,56,122)" stroke="rgb(32,56,122)" stroke-width="1" opacity="1" d="M 337.5 166 L 338.5 168 L 337.5 166 Z " /><path fill="rgb(32,56,122)" stroke="rgb(32,56,122)" stroke-width="1" opacity="1" d="M 324.5 181 L 325 185.5 L 324 185.5 L 324.5 181 Z " /><path fill="rgb(32,56,122)" stroke="rgb(32,56,122)" stroke-width="1" opacity="1" d="M 319.5 196 L 320 200.5 L 319 200.5 L 319.5 196 Z " /><path fill="rgb(32,56,122)" stroke="rgb(32,56,122)" stroke-width="1" opacity="1" d="M 58.5 208 L 59.5 210 L 58.5 208 Z " /><path fill="rgb(32,56,122)" stroke="rgb(32,56,122)" stroke-width="1" opacity="1" d="M 70.5 224 L 69.5 226 L 70.5 224 Z " /><path fill="rgb(32,56,122)" stroke="rgb(32,56,122)" stroke-width="1" opacity="1" d="M 59.5 229 L 58.5 231 L 59.5 229 Z " /><path fill="rgb(32,56,122)" stroke="rgb(32,56,122)" stroke-width="1" opacity="1" d="M 358.5 239 L 357.5 241 L 358.5 239 Z " /><path fill="rgb(78,110,177)" stroke="rgb(78,110,177)" stroke-width="1" opacity="1" d="M 91.5 4 L 93.5 9 L 95 9.5 L 92 11 L 91.5 16 L 88.5 10 L 87 9.5 L 90 9 L 91.5 4 Z " /><path fill="rgb(78,110,177)" stroke="rgb(78,110,177)" stroke-width="1" opacity="1" d="M 27 18 L 29 18 L 29 25.5 L 30.5 26 L 35 27 Q 36.3 30.3 31.5 29 L 29 30 L 29 37.5 L 27 38 L 27 30.5 L 25.5 30 L 21 29 Q 19.7 25.7 24.5 27 L 27 26 L 27 18 Z " /><path fill="rgb(78,110,177)" stroke="rgb(78,110,177)" stroke-width="1" opacity="1" d="M 329.5 18 L 330 22 L 333 23.5 L 330 25.5 L 329.5 29 Q 327 27.8 328 24 L 325 23.5 L 328 21.5 L 329.5 18 Z " /><path fill="rgb(78,110,177)" stroke="rgb(78,110,177)" stroke-width="1" opacity="1" d="M 346.5 29 L 348 38 L 353 39.5 L 348 41 L 346.5 50 L 345 41 L 340 39.5 L 345 38 L 346.5 29 Z " /><path fill="rgb(78,110,177)" stroke="rgb(78,110,177)" stroke-width="1" opacity="1" d="M 39.5 31 L 40 36 Q 44.1 34.7 43 38 L 40 39.5 L 39.5 43 L 37.5 38 Q 34.9 38.7 36 36 L 39 36 L 39.5 31 Z " /><path fill="rgb(78,110,177)" stroke="rgb(78,110,177)" stroke-width="1" opacity="1" d="M 337.5 167 L 340.5 173 L 342 173.5 L 339 174 Q 340 177.8 337.5 179 L 335.5 174 L 334 173.5 L 337 172 L 337.5 167 Z " /><path fill="rgb(78,110,177)" stroke="rgb(78,110,177)" stroke-width="1" opacity="1" d="M 322.5 181 L 323 190 L 329 191.5 L 323 194.5 L 323 201.5 L 321 202 L 321 194.5 L 319.5 193 Q 315.8 193.8 315 191.5 L 321 190 L 321 182.5 L 322.5 181 Z " /><path fill="rgb(78,110,177)" stroke="rgb(78,110,177)" stroke-width="1" opacity="1" d="M 58.5 209 L 60 210.5 L 60 218 L 66 219.5 L 60 221 L 60 228.5 L 58.5 230 L 58 222.5 L 56.5 221 L 52 219.5 L 58 216.5 L 58.5 209 Z " /><path fill="rgb(78,110,177)" stroke="rgb(78,110,177)" stroke-width="1" opacity="1" d="M 70.5 225 L 71 230 Q 75.1 228.7 74 232 Q 69.1 230.2 71 236.5 L 70 236.5 L 69 232 Q 66 233 67 230 Q 70 231.3 69 227.5 L 70.5 225 Z " /><path fill="rgb(78,110,177)" stroke="rgb(78,110,177)" stroke-width="1" opacity="1" d="M 367.5 225 L 369 238 L 375.5 239 L 377 240.5 L 369 243 L 367.5 256 Q 364.5 251.4 366 243 L 358 240.5 L 366 236.5 Q 364.8 228.8 367.5 225 Z " /><path fill="rgb(78,110,177)" stroke="rgb(78,110,177)" stroke-width="1" opacity="1" d="M 283.5 253 Q 286 254.2 285 258 L 288 258.5 L 285 260 Q 286 263.8 283.5 265 L 283 260 Q 278.9 261.3 280 258 L 283 258 L 283.5 253 Z " /><path fill="rgb(28,63,141)" stroke="rgb(28,63,141)" stroke-width="1" opacity="1" d="M 187.5 59 L 189.5 60 L 192.5 59 L 194.5 60 L 195.5 59 L 206.5 59 L 208.5 60 L 210.5 60 L 212.5 59 L 212.5 61 L 214.5 60 L 216.5 61 Q 218 58.5 219.5 62 L 222.5 61 L 222.5 63 L 225.5 62 L 226.5 64 L 228.5 63 L 228.5 65 L 233.5 67 L 235.5 66 L 235.5 68 L 237.5 69 L 239.5 68 L 240.5 71 L 242.5 72 L 244.5 71 Q 242.8 73 246.5 75 L 248.5 76 L 250 75.5 L 250.5 77 L 252 76.5 Q 249.3 78.3 253.5 80 L 258 82.5 L 257.5 84 Q 259.8 83.3 259 85.5 L 261 85.5 L 264 89.5 Q 261.3 91.3 265.5 93 L 267 93.5 L 266.5 95 L 268 95.5 Q 265.3 97.3 269.5 99 L 271 99.5 L 270.5 101 L 272 101.5 L 271.5 103 L 273 103.5 L 272 105.5 L 275 107 L 274 109.5 L 276 110 L 275 112.5 L 277 113.5 L 276.5 115 Q 279.1 114.2 278 117.5 L 277.5 119 Q 279.8 118.3 279 120.5 L 278 123 Q 281.7 121.7 280 127.5 L 281 128.5 L 281 136.5 L 280 137.5 L 281.5 140 Q 279.3 139.3 280 141.5 L 281 143.5 L 281 145.5 L 280 157 L 278 157.5 L 279 161 L 277 161.5 L 279 162.5 L 278 165 L 276 165.5 L 277 167.5 L 273 177 L 271 177.5 L 271 179.5 L 264.5 189 L 263 189.5 L 264 190.5 L 261 193.5 L 257.5 198 L 252 200.5 Q 254.8 202.3 250.5 204 L 238.5 212 L 234.5 214 L 230.5 214 L 227.5 217 L 220.5 219 L 218.5 218 L 213.5 220 L 209.5 219 L 209.5 220 L 212 220.5 L 206.5 221 L 204.5 220 L 203.5 221 L 194.5 221 L 192.5 220 L 190.5 221 L 172.5 217 L 157 209.5 L 157.5 208 L 150.5 205 L 141 196.5 L 137.5 191 L 135 189.5 L 134 187.5 L 134.5 186 L 132 185.5 Q 134.3 184.3 131.5 183 L 129 181.5 L 129 179.5 Q 129.8 177.3 127.5 178 L 127.5 177 L 129 176.5 L 127 176 Q 128.1 173.3 125.5 174 L 124.5 170 L 126 169.5 L 124 169 Q 125.1 166.3 122.5 167 L 123 165.5 L 124 163.5 L 122 163 L 123 160.5 L 120 158.5 L 122 155.5 L 120 155 L 119 151.5 L 119 149.5 L 118 143.5 L 118 141.5 L 119 135.5 L 118 133.5 L 120 129.5 L 119 127.5 L 120 125 L 122 124.5 L 120 123.5 Q 122.8 121.5 122 117 L 124 116.5 L 122 113.5 L 124 113 Q 122.9 110.3 125.5 111 L 126 108.5 L 125 106.5 L 127 106 L 130.5 99 L 132 98.5 L 132 96.5 Q 131.3 93.9 134 95 L 134 93 L 135.5 93 L 135.5 92 L 134 91.5 L 136 91 Q 135 88 138 89 L 138 86 L 139.5 86 L 145 81.5 L 144.5 80 L 147.5 78 L 155 73.5 L 154.5 72 L 167 67 Q 165.8 64 169.5 65 L 172.5 63 L 174.5 64 L 182.5 60 L 184.5 61 L 187 60.5 L 187.5 59 Z M 196 81 L 193 83 L 191 83 L 189 82 L 186 84 L 185 82 L 183 85 L 181 84 L 180 86 L 179 84 L 178 86 L 172 88 L 172 90 L 171 89 L 170 89 Q 171 91 168 90 L 168 92 L 167 92 L 165 92 Q 162 93 164 95 L 162 95 Q 163 97 160 96 L 160 99 L 158 99 Q 159 101 156 100 L 156 102 L 155 102 L 155 104 L 151 106 L 152 109 L 151 108 L 150 111 L 149 110 Q 146 111 148 113 L 148 115 L 147 112 L 145 113 L 146 115 L 146 117 L 146 119 L 145 116 L 143 122 L 144 124 L 142 124 L 143 128 L 142 133 L 140 135 L 140 146 Q 143 145 142 150 L 144 150 Q 141 151 142 156 L 144 156 L 143 158 L 144 162 L 146 161 L 147 168 L 148 165 L 149 168 L 147 169 L 150 170 Q 148 175 152 174 L 153 178 L 154 175 L 155 180 L 155 179 L 157 180 Q 156 182 159 181 L 164 187 L 164 189 L 166 188 L 169 189 L 167 192 L 169 192 L 172 191 L 174 193 Q 173 195 176 194 L 177 194 L 176 196 L 179 196 L 181 195 L 182 198 L 186 197 L 189 198 L 188 200 L 191 198 Q 193 197 192 200 L 194 199 Q 199 198 200 201 L 200 199 L 204 201 L 204 199 L 208 200 L 213 197 L 214 199 L 214 197 L 218 198 L 218 197 L 224 193 L 226 194 L 228 193 L 228 191 L 230 192 L 232 189 L 234 190 L 234 189 L 238 187 L 237 186 L 240 185 Q 239 182 242 183 L 242 181 L 244 181 L 244 179 Q 246 175 248 177 L 247 174 L 249 173 L 250 174 Q 249 169 252 170 L 252 167 L 254 167 L 254 163 L 254 161 Q 255 158 257 160 L 257 158 L 256 158 L 255 156 L 257 156 L 257 153 L 259 153 L 259 129 L 257 128 L 258 126 L 257 123 L 256 123 L 256 119 L 254 119 L 254 114 L 252 114 Q 253 111 251 112 L 251 111 L 250 107 L 249 107 L 248 104 Q 245 105 246 103 L 245 103 L 244 101 L 243 101 L 242 99 L 241 99 L 240 97 L 239 97 L 238 95 L 237 95 L 237 94 Q 235 89 234 92 Q 231 93 232 91 L 231 91 L 231 89 L 229 90 L 228 89 L 227 89 L 227 88 Q 226 85 225 87 Q 222 88 223 85 L 221 86 L 219 83 L 218 85 L 216 82 L 215 84 L 212 82 L 210 83 L 208 83 Q 204 79 196 81 Z M 163 91 L 162 93 L 164 92 L 163 91 Z M 141 129 L 139 131 L 140 133 L 141 133 L 141 129 Z M 141 147 L 140 150 L 141 150 L 141 147 Z M 160 184 Q 158 187 161 186 L 160 184 Z M 162 186 Q 160 189 163 188 L 162 186 Z M 233 190 L 231 192 L 233 192 L 233 190 Z M 172 192 Q 170 195 173 194 L 172 192 Z " /><path fill="rgb(26,67,150)" stroke="rgb(26,67,150)" stroke-width="1" opacity="1" d="M 192.5 93 L 204.5 93 L 206.5 94 L 208.5 93 L 213.5 96 L 216.5 94 L 216 95.5 Q 215.2 98.1 218.5 97 L 221 98 L 221.5 100 L 222.5 99 L 225.5 102 L 227.5 101 L 236.5 111 L 238 111.5 L 237.5 113 L 240 114.5 Q 237.8 115.8 240.5 117 L 242 117.5 L 241 119.5 L 244 121 L 243 123.5 L 244 127 Q 247 125.8 246 129.5 L 246 131.5 L 248 138.5 L 247 140.5 L 247 142.5 L 246 146.5 L 246.5 148 L 245 148.5 L 246 150.5 L 245.5 153 Q 243.3 152.3 244 154.5 L 245 155.5 L 242.5 160 Q 240.3 159.3 241 161.5 L 242 162.5 L 239 165.5 L 239 167.5 L 228.5 178 L 223 180.5 Q 223.8 182.8 221.5 182 Q 220 179.5 218.5 183 L 214.5 185 L 213 184.5 Q 213.9 187.5 209.5 186 L 207.5 186 L 201.5 187 L 199.5 186 L 196.5 187 L 194.5 186 L 192 187 L 191.5 185 L 189.5 186 L 187 185.5 L 186.5 184 L 184.5 185 Q 182.8 181.9 181 183.5 Q 181.8 180.9 178.5 182 L 176 181 L 175.5 179 L 173 180 L 173 178 L 171 178 L 171 176 L 169 176 L 169 174 L 167 174 L 167 172 Q 164.3 173.1 165 170.5 L 159 165.5 L 160 163 L 157 161.5 L 158 160.5 L 155 157.5 L 156 156.5 L 157 154.5 L 155.5 154 L 154 154.5 L 155 152.5 L 152 140.5 L 153 137.5 L 152 135.5 Q 155.5 134 153 132.5 L 155 126.5 L 154 125.5 Q 157.1 123.8 155.5 122 L 157 122 L 157 118 Q 159.7 119.1 159 116.5 L 161.5 112 Q 163.8 112.8 163 110.5 L 166.5 106 Q 170.1 101.1 178 100.5 L 178 98.5 L 178.5 97 L 181 98 L 181.5 96 L 183.5 97 L 183.5 95 Q 185.8 94.3 185 96.5 L 187.5 95 L 189.5 94 Q 191 96.5 192.5 93 Z M 161 165 L 162 167 Q 163 164 161 165 Z " /><path fill="rgb(27,66,148)" stroke="rgb(27,66,148)" stroke-width="1" opacity="1" d="M 206.5 79 L 206.5 83 L 208.5 82 L 210.5 83 L 213 81.5 L 212.5 83 L 214.5 84 L 215.5 82 L 217.5 85 L 218.5 83 L 220.5 86 L 223 85 Q 221.9 87.7 224.5 87 L 224.5 85 L 229 87.5 L 228 89.5 L 229.5 89 Q 231.8 89.8 231 87.5 L 232 87.5 L 233 89.5 L 232 92 L 234.5 91 Q 236.3 94.1 238 92.5 L 238 94.5 L 238.5 97 L 240 96.5 L 240.5 99 L 242 98.5 L 242.5 101 L 243.5 98 L 245.5 101 L 244 100.5 L 244.5 103 L 246 102.5 Q 245.3 104.8 247.5 104 L 250 104.5 L 250 106.5 L 250.5 110 L 252 109.5 L 250.5 112 L 252.5 111 L 252 112.5 Q 251.3 115.1 254 114 L 254 119 L 255.5 119 Q 253.9 120.8 257 122.5 L 258 125.5 L 257 128 L 259 128.5 L 259 152.5 L 257 152.5 L 256 156.5 L 257 159.5 Q 253.1 161.1 253.5 167 L 252 166.5 L 252 169.5 Q 249 168.5 250 173.5 L 248.5 173 L 247 173.5 L 248 176.5 L 245 177.5 L 245.5 179 L 244 178.5 L 244 181 L 242 181 L 242 183 Q 239.3 181.9 240 184.5 L 237 185.5 L 237.5 187 L 235 187.5 L 236 189.5 L 235 189.5 L 234.5 188 L 233 192 L 231 191.5 L 232.5 189 L 230 190.5 L 229.5 192 L 227.5 191 L 227.5 193 L 223.5 196 L 224.5 193 L 219 195.5 L 220.5 198 L 218 196.5 L 217.5 198 L 214 197 L 213.5 199 L 213 197 L 211 197.5 L 212 199.5 L 211 199.5 L 210.5 198 L 207.5 200 L 204 199 L 203.5 201 L 200 199 L 199.5 201 Q 198.5 198 193.5 199 L 192 199.5 Q 192.8 197.3 190.5 198 L 188 199.5 L 189 197.5 L 185.5 197 L 186 198.5 L 185.5 200 L 183.5 197 L 182 197.5 L 180.5 195 L 179 195.5 L 180 197.5 L 179 197.5 L 177.5 195 L 176 195.5 Q 176.7 192.9 174 194 L 173.5 196 L 173 194 Q 170.3 195.1 171 192.5 Q 169.7 189.7 168.5 192 L 167 191.5 L 168.5 189 L 165.5 188 L 163 189.5 L 164 186.5 L 157.5 181 L 162.5 188 L 161 188 L 161 186 Q 158.3 187.1 159 184.5 Q 153.3 182.8 153.5 175 L 152.5 178 L 152 174 Q 148.3 175.3 150 169.5 Q 148 171.2 146 167.5 L 145.5 161 L 144 161.5 L 143 157.5 L 144 155.5 L 142 155.5 L 142 151.5 L 140 147.5 L 141 147.5 L 141.5 150 L 142 146 L 140 145.5 L 140 134.5 L 140 132.5 L 139 130.5 L 141 129.5 L 141.5 133 L 142 128.5 L 142 126.5 L 142.5 123 L 144 123.5 L 142 120.5 L 144 120.5 Q 143.2 115.2 146 113.5 L 145.5 112 L 148 110.5 Q 145.3 108.7 149.5 107 L 152 108.5 L 151 105.5 L 153 101.5 L 153.5 100 L 154 102 Q 156.7 103.1 156 100.5 L 155.5 99 L 158 100 L 157 96.5 L 158 96.5 L 159.5 99 L 160 96.5 L 159 94.5 L 160 94.5 Q 159.3 97.1 162 96 L 163 93.5 L 161 92.5 L 163.5 91 L 166.5 92 Q 168.8 92.8 168 90.5 Q 165.8 89.3 168.5 88 L 168.5 90 Q 170.8 90.8 170 88.5 Q 171.3 85.8 172.5 88 L 176 86.5 L 175.5 85 L 178 86 L 179.5 83 L 182 83.5 L 181.5 85 Q 183.8 85.8 183 83.5 L 183.5 81 L 185.5 84 L 188 82.5 L 187.5 81 L 190.5 83 L 192.5 83 L 194 82.5 Q 191.8 81.3 194.5 80 L 195.5 81 L 204.5 81 L 206.5 79 Z M 193 93 Q 191 96 190 94 L 188 95 L 185 97 Q 186 94 184 95 L 184 97 L 182 96 L 181 98 L 182 99 L 179 97 L 178 99 L 178 101 Q 170 101 167 106 L 163 111 Q 164 113 162 112 L 159 118 L 160 121 L 159 118 Q 156 117 157 122 L 158 123 L 156 122 Q 157 124 154 126 L 156 129 L 155 128 L 153 133 Q 156 134 152 136 L 153 138 L 152 141 L 154 152 L 156 152 L 155 154 L 157 155 L 156 157 L 155 158 L 158 161 Q 156 162 159 163 Q 161 162 160 165 L 162 165 L 161 168 L 164 169 L 165 172 L 168 171 L 167 173 Q 166 175 169 174 L 169 176 L 171 176 L 171 178 L 174 177 L 176 181 L 181 182 L 182 182 L 181 184 L 183 183 L 186 185 L 186 183 L 187 186 L 190 186 L 192 185 L 192 187 L 195 186 L 197 187 L 200 186 L 202 187 Q 207 188 209 185 L 213 186 L 215 183 L 215 185 L 219 183 Q 220 179 222 182 Q 224 183 223 181 L 227 179 L 227 177 L 229 178 L 239 168 L 239 166 L 242 163 L 241 162 Q 240 159 243 160 L 245 156 L 244 155 Q 243 152 246 153 L 246 151 L 245 149 L 247 148 L 246 147 L 247 143 L 247 141 L 248 139 L 246 132 L 246 130 Q 247 126 244 127 L 243 124 L 244 121 L 241 120 L 242 118 L 241 117 Q 236 115 239 114 L 238 113 L 238 112 L 237 111 L 230 104 L 229 105 L 229 104 L 228 101 L 226 102 Q 224 98 223 101 L 221 98 L 219 99 L 219 97 L 216 97 Q 217 94 215 95 L 215 97 L 209 93 L 207 94 L 205 93 L 193 93 Z M 150 108 L 148 110 L 150 111 L 150 108 Z M 148 112 L 147 115 L 148 115 L 148 112 Z M 146 116 L 145 119 L 146 119 L 146 116 Z M 148 165 L 147 168 L 149 168 L 148 165 Z M 156 178 L 155 180 L 157 181 L 156 178 Z M 174 178 Q 172 181 175 180 L 174 178 Z M 172 191 L 174 194 L 174 193 L 172 191 Z " /><path fill="rgb(27,66,148)" stroke="rgb(27,66,148)" stroke-width="1" opacity="1" d="M 162.5 113 L 161.5 115 L 162.5 113 Z " /><path fill="rgb(34,52,113)" stroke="rgb(34,52,113)" stroke-width="1" opacity="1" d="M 132.5 0 L 136.5 1 L 137.5 0 L 165.5 0 L 165.5 1 Q 160.9 0.4 159.5 3 L 157.5 3 L 149 5 L 148.5 7 L 146.5 6 L 146.5 8 L 144.5 7 L 139 9 Q 140.3 12.3 135.5 11 L 135.5 13 L 131.5 13 L 131 15 L 128.5 15 L 126 16 Q 127.1 18.7 124.5 18 L 121 19 Q 122.1 21.7 119.5 21 L 114 24 L 112.5 27 L 110 27 Q 111.1 29.7 108.5 29 L 106 30 L 106 32 Q 103.3 30.9 104 33.5 L 95 42.5 L 95 44 L 88 49.5 Q 88.8 51.8 86.5 51 Q 88.4 53.8 83 56.5 L 81.5 59 L 80 59.5 Q 82.5 61 79 62.5 L 78 64.5 L 78.5 66 L 76 67.5 L 77 69.5 L 75.5 69 L 74 69.5 Q 76.5 71 73 72.5 L 74 74.5 L 72 75 L 69 81.5 L 69.5 83 L 68 83 L 68 85 Q 65.3 83.9 66 86.5 L 66 88.5 L 63 94.5 L 64 96.5 Q 61.2 98.5 62 103 L 60 103.5 L 62 106.5 L 60 107 L 58 111.5 L 59 113.5 L 58 114.5 L 59.5 117 Q 57.3 116.3 58 118.5 L 57 122.5 L 57 126.5 L 56 128.5 L 56 151.5 L 56 153.5 L 58 163 L 60 163.5 L 58 164 L 59 167.5 Q 56.5 169 60 170.5 Q 58.9 173.8 61.5 173 L 61 174.5 L 60 176.5 L 61.5 177 L 63 176.5 L 62 180.5 L 62.5 185 L 64.5 184 L 64 185.5 Q 63.3 187.8 65.5 187 L 65.5 188 L 64 188.5 Q 67.1 190.2 65.5 192 Q 67.8 191.3 67 193.5 L 66.5 195 L 68.5 194 L 68 195.5 L 69 197.5 L 68.5 199 Q 70.8 198.3 70 200.5 L 69 201.5 L 72 204.5 L 71 205.5 L 74 208.5 Q 71.8 209.8 74.5 211 L 76.5 210 L 76 211.5 L 77 213.5 L 76 214.5 L 81 219.5 L 80.5 221 L 83 222.5 L 85.5 226 L 87 226.5 L 85 227.5 L 91 232.5 Q 95 242 103.5 247 Q 115.8 258.7 131.5 267 L 144.5 272 L 146.5 274 L 166 279.5 L 133.5 280 L 127 276.5 L 126.5 275 L 124.5 276 L 122.5 273 L 121 273.5 L 121.5 272 L 119.5 273 L 114.5 267 L 114 268.5 L 114.5 270 L 108.5 263 L 107.5 265 L 100.5 257 L 99 257.5 L 99.5 259 L 98 256 L 96 255.5 L 97.5 253 L 94.5 254 L 93.5 251 L 92 251.5 Q 94.3 250.3 91.5 249 L 89.5 250 L 89.5 249 L 91 248.5 L 88 247.5 Q 90.2 246.2 87.5 245 L 86 245.5 L 86.5 244 Q 84.3 244.8 85 242.5 L 83 242.5 L 83 240 Q 80.3 241.1 81 238.5 L 79.5 235 L 78.5 237 L 76.5 234 L 78.5 235 L 76 231.5 L 74.5 229 Q 69.9 230.3 72 224.5 L 69 222.5 Q 71.3 221.2 68.5 220 Q 66.3 220.8 67 218.5 L 65 218.5 L 65.5 217 Q 61.8 217.8 61 215.5 Q 59.2 209.2 62 207.5 L 60 207 L 61 204.5 L 59.5 204 L 58 204.5 L 58 202.5 L 59 200.5 L 57.5 200 L 56 200.5 L 58 197.5 L 56 197 L 57 194.5 L 55.5 194 L 54 194.5 L 54 192.5 L 52 188.5 L 54 187.5 L 52 187 Q 52.8 183.6 50 182.5 L 50 180.5 L 48 172 L 50 171.5 L 48 171 L 47 167.5 L 49 166.5 L 46 164.5 L 47 162.5 L 46 160 L 48 159.5 L 46 159 L 45 153.5 L 45 151.5 Q 46.3 146.7 44 145.5 L 44 143.5 L 45 140.5 L 44 135.5 L 46 129.5 Q 43.8 128.3 45 123.5 L 46 121 L 48 120.5 L 46 120 L 47 114.5 Q 44.5 113 48 111.5 Q 46.9 108.2 49.5 109 L 49.5 108 Q 47.3 108.8 48 106.5 L 50.5 103 Q 48.3 103.8 49 101.5 L 50 97 L 52 97 L 52 93 L 53.5 93 Q 51.9 91.3 55 89.5 L 54 88.5 Q 53.3 86.3 55.5 87 L 55.5 86 L 54 85.5 L 56 85 Q 54.9 82.3 57.5 83 L 57 81.5 L 56 79.5 L 58 79 Q 56.9 76.3 59.5 77 L 59.5 76 L 58 75.5 L 60 75 Q 58.9 72.3 61.5 73 L 61.5 72 L 60 71.5 L 62 71 Q 60.9 68.3 63.5 69 L 63.5 68 L 62 67.5 L 64 67 Q 62.9 64.3 65.5 65 L 65.5 64 L 64 63.5 L 67 61.5 L 68.5 59 L 70 58.5 L 70 56.5 L 71.5 54 L 73.5 55 L 74 50.5 L 79 44.5 L 78.5 43 Q 80.8 43.8 80 41.5 Q 81.3 38.3 86 38.5 L 85.5 37 L 88 36.5 L 87 34.5 L 88.5 35 L 90 34.5 L 89 32.5 L 90.5 33 L 92 32.5 L 91 30.5 L 92.5 31 L 94 30.5 L 93 28.5 L 94.5 29 L 96 28.5 L 95 26.5 L 96.5 27 L 98 26.5 Q 95.5 25 99 23.5 L 102.5 19 Q 107.3 18.8 109 15.5 L 110.5 13 L 112.5 14 L 113.5 12 L 115.5 13 L 115 11.5 L 116.5 9 L 119.5 8 L 121.5 9 L 121.5 7 L 125 5.5 L 126.5 3 L 127.5 5 L 129 2 L 131.5 3 L 132.5 0 Z M 64 212 L 62 214 Q 61 217 65 216 L 64 215 L 65 213 L 64 212 Z " /><path fill="rgb(34,52,113)" stroke="rgb(34,52,113)" stroke-width="1" opacity="1" d="M 236 0 L 261.5 0 L 262.5 1 L 266 0 L 267.5 3 L 269.5 2 L 274 4 L 274.5 6 L 275.5 5 L 278.5 8 L 280.5 7 L 282.5 10 L 285.5 12 L 287 11.5 L 288 13.5 L 287.5 15 L 291.5 16 L 293 15.5 L 298.5 22 L 301.5 24 L 303 23.5 L 302 25.5 L 303.5 26 L 305 25.5 L 307 28.5 L 313 33 L 312 35.5 L 313.5 36 L 315 35.5 L 314 37.5 L 317 38.5 L 316.5 40 Q 318.8 39.3 318 41.5 L 323 45 Q 321.9 47.7 324.5 47 L 324 48.5 L 324.5 50 L 326 49.5 Q 323.2 51.3 327.5 53 L 329 53.5 L 328 55.5 L 333 59.5 L 332 61.5 L 335 63.5 L 335 65.5 L 336.5 68 L 339 69.5 L 337 69.5 L 340 77 L 342 77.5 L 341.5 79 L 343 79.5 L 342 81.5 L 345 83 L 344 85.5 L 345.5 89 L 347 89.5 L 346 91.5 L 347 95 Q 349.7 93.9 349 96.5 L 348 100 L 351 101.5 L 350 107.5 L 351 111 Q 354.3 109.7 353 114.5 L 352 116.5 L 353 118.5 L 352.5 120 Q 355.5 119.1 354 123.5 L 353.5 125 L 355 125.5 L 355 152.5 L 354.5 155 L 353 155.5 L 354 160 L 352 160.5 L 354 161.5 L 352 164.5 L 353 166.5 L 352.5 169 Q 350.3 168.3 351 170.5 Q 353.5 172 350 173.5 L 351 177.5 L 350 180 L 348 180.5 L 350 181.5 Q 346.9 183.3 348.5 185 Q 346.3 184.3 347 186.5 L 347.5 188 Q 345.3 187.3 346 189.5 L 346.5 191 L 344 192.5 L 346 193.5 Q 342.9 195.3 344.5 197 L 342 198.5 L 343 200.5 L 341 201.5 L 342 203.5 L 340 203.5 L 341 206.5 L 337 209.5 L 339 210.5 L 336 212 L 335 214.5 Q 337.3 215.8 334.5 217 L 332 218.5 L 333 220.5 L 330 222 L 331 224.5 L 324 230.5 L 325 232.5 L 321 235 L 319.5 238 Q 317.3 237.3 318 239.5 L 318.5 241 L 316.5 240 L 315.5 242 L 317 242.5 L 305.5 254 L 302 255 L 297.5 261 L 295.5 260 L 295.5 262 Q 293.8 259.3 292 263.5 L 289.5 267 L 287.5 268 L 286 267.5 L 284 270.5 L 282.5 270 L 281 270.5 L 281.5 272 L 280 271.5 L 278.5 274 L 276.5 275 Q 275 272.5 273.5 276 L 270 277 Q 271.3 280.3 266.5 279 L 265.5 280 L 234.5 280 L 234.5 279 L 238.5 279 L 250.5 274 L 253.5 274 L 279.5 260 L 283.5 267 L 284.5 265 L 286 265.5 L 289 255.5 L 287 254.5 L 309 234.5 L 308.5 233 L 312 230.5 L 311.5 229 L 317 224.5 L 322 216.5 L 321.5 215 L 324 213.5 L 327 207.5 L 326.5 206 L 328 206.5 L 331 200.5 L 330.5 199 Q 333.1 199.8 332 196.5 L 334 192.5 L 333.5 191 Q 335.8 191.8 335 189.5 L 336 186.5 L 335.5 185 Q 337.8 185.8 337 183.5 L 341 177.5 L 342 172 L 340 171.5 L 342 165.5 L 342 160.5 L 341.5 159 L 343 158.5 L 343 151.5 L 344 150.5 L 344 133.5 L 343.5 131 L 342 130.5 L 344 129.5 L 343 128.5 L 343 121 L 341 120.5 L 342 115 Q 339.3 116.1 340 113.5 L 341 109 L 339 108.5 L 340 105 L 338 104.5 L 339 101 L 337 100.5 Q 339.5 99 336 97.5 L 337 95.5 L 336 92 Q 333.3 93.1 334 90.5 L 334 88.5 Q 334.8 86.3 332.5 87 L 332.5 85 Q 330.3 85.8 331 83.5 L 331.5 82 L 330 81.5 L 331 79 L 328 77.5 L 329 75.5 L 326 73.5 L 326.5 72 L 325 71.5 L 325.5 70 Q 322.5 70.9 324 66.5 L 322 66.5 L 322 64.5 L 320.5 62 L 319 61.5 L 319.5 60 Q 316.9 60.8 318 57.5 L 314 54.5 Q 316.3 53.2 313.5 52 Q 310.9 52.8 312 49.5 L 308.5 45 L 307 45.5 L 302.5 38 Q 300.8 40.7 299 36.5 L 296.5 33 L 295 33.5 L 294.5 31 L 293 31.5 L 291.5 29 L 289 27.5 Q 289.8 24.9 286.5 26 L 286.5 24 L 284.5 23 Q 283 25.5 281.5 22 L 279 20.5 L 278.5 19 Q 277 21.5 275.5 18 L 274 17.5 L 274.5 16 L 272.5 17 L 269 14.5 L 268.5 13 L 267 13.5 Q 267.8 11.3 265.5 12 L 263 11.5 L 262.5 10 L 261 10.5 L 260.5 9 L 259 9.5 Q 259.8 6.9 256.5 8 L 254 7.5 Q 254.8 5.3 252.5 6 L 250.5 6 L 245.5 3 L 243.5 3 L 240.5 2 L 239 2.5 L 239.5 1 L 236 2 L 236 0 Z M 329 224 L 328 226 L 330 225 L 329 224 Z M 265 277 L 265 279 L 267 278 L 265 277 Z " /><path fill="rgb(34,52,113)" stroke="rgb(34,52,113)" stroke-width="1" opacity="1" d="M 326.5 189 L 327.5 191 L 326.5 189 Z " /><path fill="rgb(37,46,96)" stroke="rgb(37,46,96)" stroke-width="1" opacity="1" d="M 0 0 L 89.5 0 L 90.5 1 Q 91.8 -1.3 93 1.5 L 93 3.5 L 92.5 6 L 92 3 Q 88.3 1.6 90 7.5 L 89 7.5 L 87.5 4 L 87 6 Q 84 4.8 85 8.5 L 84 8.5 L 83.5 7 L 82.5 10 L 81 9.5 Q 81.8 11.8 79.5 11 L 77 12 Q 78.1 14.7 75.5 14 L 73 18 L 71 18 L 71 20 Q 68.3 18.9 69 21.5 L 68 22.5 L 69.5 25 L 66.5 23 L 64.5 27 Q 61.9 26.2 63 29.5 L 60 31 L 61 34.5 L 58 33.5 L 55.5 39 L 54 39.5 Q 56.5 41 53 42.5 L 51.5 45 Q 49.3 44.3 50 46.5 L 48 51 Q 45.3 49.9 46 52.5 L 45.5 55 Q 43.3 54.3 44 56.5 L 44 58.5 L 41 61.5 L 41.5 63 Q 39.3 62.3 40 64.5 L 39.5 67 Q 37.3 66.3 38 68.5 L 37.5 71 Q 35.3 70.3 36 72.5 L 36 74.5 L 31 85.5 Q 33.5 87 30 88.5 L 29 93.5 L 29.5 95 Q 26.5 94.1 28 98.5 L 27.5 103 Q 24.5 102.1 26 106.5 L 27 107.5 L 25 111.5 L 24 122.5 Q 26.5 124 23 125.5 Q 24.3 132.3 22 135.5 L 23 138.5 L 23 140.5 L 22 143.5 L 23 145.5 L 22 147.5 L 23 148.5 L 23.5 157 L 25 156.5 L 24 157.5 L 24 165 L 26 165.5 L 25 170.5 L 27 170.5 L 26 177 L 28 177.5 L 27 180.5 L 29 180.5 L 28 183.5 Q 27.3 185.8 29.5 185 L 29 186.5 Q 28.3 188.8 30.5 188 L 30 189.5 L 31 195 L 33 195.5 L 32 197.5 L 36 202.5 L 34 202.5 L 35.5 205 L 37 205.5 L 36 208.5 L 38 208.5 L 37 210.5 L 40 212.5 L 39 214.5 L 42 216.5 L 41 218.5 L 44 220.5 L 43 223 L 46 224.5 L 45 226.5 L 48 228.5 L 47 230.5 L 51 232.5 L 49 233.5 L 52 234 L 51 236.5 L 53 237 L 53.5 240 L 54.5 238 L 56 240.5 L 55 243 Q 57.7 241.9 57 244.5 L 59 244.5 L 58 246.5 L 59.5 246 Q 61.8 245.3 61 247.5 L 65 253.5 L 65.5 256 L 66.5 254 L 69.5 259 L 71 259 L 71 261 L 73 261 L 73 263 L 75 263 L 75 265 L 77 265 L 77 267 Q 79.7 265.9 79 268.5 L 78.5 270 L 80.5 269 L 80.5 271 L 82.5 270 L 83.5 273 L 85 272.5 Q 82.8 273.8 85.5 275 L 86.5 273 L 91 277.5 L 90.5 279 L 93 279.5 L 0 280 L 0 0 Z M 27 17 L 27 26 L 24 27 Q 20 26 21 29 L 25 30 L 27 31 L 27 39 L 29 39 L 29 30 L 33 29 Q 36 30 35 27 L 32 26 L 29 26 L 29 18 L 27 17 Z M 40 30 L 38 32 Q 40 38 35 36 Q 34 39 38 38 L 38 44 L 40 44 L 41 42 Q 40 36 44 38 Q 45 35 41 36 L 40 30 Z M 88 276 L 89 278 Q 90 275 88 276 Z " /><path fill="rgb(37,46,96)" stroke="rgb(37,46,96)" stroke-width="1" opacity="1" d="M 309.5 0 L 311.5 0 L 399.5 0 L 400 0.5 L 400 280 L 307 279.5 L 309.5 279 L 316 272.5 L 318 269.5 L 328.5 259 L 330 259 Q 328.9 256.3 331.5 257 L 331.5 255 L 334.5 256 L 333.5 254 L 332 253.5 L 333.5 253 L 337 253.5 L 336 250.5 L 339.5 248 L 341 248.5 L 340 245.5 L 343 244.5 L 342 242 L 347 238.5 L 346.5 237 L 348.5 238 L 347.5 235 L 349.5 234 L 351 234.5 L 350 230.5 L 353 228.5 L 352.5 227 L 354.5 228 L 353.5 225 L 357 224 L 356 220 L 358.5 221 L 359 218 L 357 217.5 L 361 216 L 360 212.5 Q 363.5 212 363 207.5 L 362.5 206 Q 364.8 205.3 364 207.5 L 365 207.5 L 364 203.5 L 367 201.5 L 368 198.5 L 366 198 Q 364.9 195.3 367.5 196 L 369 196.5 L 370 192.5 L 368 191.5 L 371 190.5 L 372 184.5 Q 368.5 183 371 181.5 L 373 178.5 L 372.5 177 L 374 176.5 L 372 172.5 L 374 172 L 374.5 175 L 375 171 L 373 170.5 L 376 164.5 L 374 158.5 L 375.5 156 L 376.5 161 L 377 155 L 375 154.5 L 377 154 L 376 151.5 L 378 148.5 L 378 133.5 L 377 130.5 L 376 128.5 L 377 127.5 L 377 119.5 L 376 119.5 L 375.5 122 L 374 119.5 L 376 117.5 L 375 112.5 L 374 110.5 L 375 106.5 L 374 106.5 L 373.5 108 L 373 106.5 L 373.5 103 Q 370.5 103.9 372 99.5 L 373 98.5 L 371 96.5 L 371.5 93 L 368 91.5 L 370 89.5 L 368.5 86 Q 366.3 86.8 367 84.5 Q 364.5 83 368 81.5 L 366.5 80 L 364 79.5 L 366 77.5 L 365.5 75 L 362 73.5 Q 366 71.5 362 69.5 L 361 66 Q 358.3 67.1 359 64.5 L 359 62.5 L 358 59 L 355 57.5 L 354 55.5 Q 356.3 54.3 353.5 53 L 352 53.5 L 353 51.5 L 349.5 49 L 348 49.5 Q 346.3 42.8 349.5 41 Q 353.3 41.8 354 39.5 L 348 36.5 L 348 28.5 L 346 28 L 345 36.5 L 343.5 38 Q 338.7 39.7 340 35.5 L 341.5 33 L 338 31.5 L 338.5 30 L 336 29.5 L 337 27 L 334.5 28 L 336 25.5 L 334.5 24 L 331 26.5 L 330.5 30 L 330 25 L 334 24 Q 335.2 20.3 330 22 L 330 16 L 328 16 L 328 22 L 325.5 22 L 325.5 21 L 327 21 L 327 17 L 324 15.5 Q 324.8 13.3 322.5 14 L 315 5 L 312.5 6 L 313 4.5 Q 313.8 2.3 311.5 3 L 310 3.5 Q 310.8 1.3 308.5 2 L 307 2.5 L 309.5 0 Z M 332 18 L 331 21 L 332 21 L 332 18 Z M 342 34 L 341 37 L 344 37 Q 345 33 342 34 Z M 350 35 Q 348 38 351 37 L 350 35 Z M 349 42 L 349 48 Q 351 51 352 48 L 350 47 L 351 43 L 349 42 Z M 373 180 L 372 183 L 373 183 L 373 180 Z M 366 224 Q 367 233 365 238 L 361 239 Q 356 238 357 241 L 365 243 L 366 246 L 366 256 L 368 256 L 369 243 L 376 241 Q 378 242 377 239 L 371 238 L 369 237 Q 371 231 368 230 Q 370 223 366 224 Z M 353 230 L 351 232 L 353 232 L 353 230 Z M 345 242 L 343 244 L 345 244 L 345 242 Z M 339 250 L 337 252 L 339 252 L 339 250 Z M 333 257 L 331 259 L 333 259 L 333 257 Z M 321 269 L 319 271 L 321 271 L 321 269 Z M 319 271 L 317 273 L 319 273 L 319 271 Z " /><path fill="rgb(37,46,96)" stroke="rgb(37,46,96)" stroke-width="1" opacity="1" d="M 86.5 7 Q 89.5 8.5 86.5 10 L 86.5 7 Z " /><path fill="rgb(37,46,96)" stroke="rgb(37,46,96)" stroke-width="1" opacity="1" d="M 88.5 11 Q 91.5 10.1 90 14.5 L 89 14.5 L 88.5 11 Z " /><path fill="rgb(37,46,96)" stroke="rgb(37,46,96)" stroke-width="1" opacity="1" d="M 92.5 13 L 93 15.5 L 92 15.5 L 92.5 13 Z " /><path fill="rgb(37,46,96)" stroke="rgb(37,46,96)" stroke-width="1" opacity="1" d="M 327.5 25 L 328 28.5 L 327 28.5 L 327.5 25 Z " /><path fill="rgb(37,46,96)" stroke="rgb(37,46,96)" stroke-width="1" opacity="1" d="M 341.5 41 L 345 42.5 L 344.5 47 L 344 42 Q 340.7 42.8 341.5 41 Z " /><path fill="rgb(37,46,96)" stroke="rgb(37,46,96)" stroke-width="1" opacity="1" d="M 57.5 209 L 58 212.5 L 57 212.5 L 57.5 209 Z " /><path fill="rgb(37,46,96)" stroke="rgb(37,46,96)" stroke-width="1" opacity="1" d="M 60.5 210 L 61 216.5 L 60 216.5 L 60.5 210 Z " /><path fill="rgb(37,46,96)" stroke="rgb(37,46,96)" stroke-width="1" opacity="1" d="M 56.5 216 L 55.5 218 L 54 217.5 L 56.5 216 Z " /><path fill="rgb(37,46,96)" stroke="rgb(37,46,96)" stroke-width="1" opacity="1" d="M 53.5 221 L 57 222.5 L 55.5 222 Q 52.5 222.5 53.5 221 Z " /><path fill="rgb(37,46,96)" stroke="rgb(37,46,96)" stroke-width="1" opacity="1" d="M 60.5 222 L 61 228.5 L 60 228.5 L 60.5 222 Z " /><path fill="rgb(37,46,96)" stroke="rgb(37,46,96)" stroke-width="1" opacity="1" d="M 57.5 225 L 58 229.5 L 57 229.5 L 57.5 225 Z " /><path fill="rgb(37,46,96)" stroke="rgb(37,46,96)" stroke-width="1" opacity="1" d="M 68.5 228 L 69 230 L 67 229.5 L 68.5 228 Z " /><path fill="rgb(37,46,96)" stroke="rgb(37,46,96)" stroke-width="1" opacity="1" d="M 67.5 232 Q 70.1 231.2 69 234.5 L 68 234.5 L 67.5 232 Z " /><path fill="rgb(37,46,96)" stroke="rgb(37,46,96)" stroke-width="1" opacity="1" d="M 282.5 260 L 283 262.5 L 282 262.5 L 282.5 260 Z " /><path fill="rgb(37,46,96)" stroke="rgb(37,46,96)" stroke-width="1" opacity="1" d="M 285.5 260 L 286 262.5 L 285 262.5 L 285.5 260 Z " /></svg>